<?xml version="1.0" standalone="no"?><!DOCTYPE svg PUBLIC "-//W3C//DTD SVG 1.1//EN" "http://www.w3.org/Graphics/SVG/1.1/DTD/svg11.dtd"><svg t="1634017421510" class="icon" viewBox="0 0 1025 1024" version="1.1" xmlns="http://www.w3.org/2000/svg" p-id="1260" width="128.125" height="128" xmlns:xlink="http://www.w3.org/1999/xlink"><defs><style type="text/css"></style></defs><path d="M726.0164 85.266693H299.582975c-47.081609 0-85.266693 38.185084-85.266692 85.266692v682.433425c0 47.081609 38.185084 85.266693 85.266692 85.266693h426.533386c47.081609 0 85.266693-38.185084 85.266692-85.266693V170.633346c0-47.18157-38.185084-85.366654-85.366653-85.366653z m-426.433425 42.683327h426.533386c23.490824 0 42.683327 19.092542 42.683327 42.683326v533.091761H256.899649V170.633346c0-23.590785 19.092542-42.683327 42.683326-42.683326z m426.433425 767.700117H299.582975c-23.490824 0-42.683327-19.092542-42.683326-42.683327V746.408434h511.800078V853.066771c0 23.490824-19.092542 42.583366-42.683327 42.583366z" p-id="1261" fill="#bfbfbf"></path><path d="M512.799688 810.383444m-42.683327 0a42.683327 42.683327 0 1 0 85.366653 0 42.683327 42.683327 0 1 0-85.366653 0Z" p-id="1262" fill="#bfbfbf"></path></svg>