<?xml version="1.0" standalone="no"?><!DOCTYPE svg PUBLIC "-//W3C//DTD SVG 1.1//EN" "http://www.w3.org/Graphics/SVG/1.1/DTD/svg11.dtd"><svg t="1634654456558" class="icon" viewBox="0 0 1024 1024" version="1.1" xmlns="http://www.w3.org/2000/svg" p-id="63987" xmlns:xlink="http://www.w3.org/1999/xlink" width="128" height="128"><defs><style type="text/css"></style></defs><path d="M192 64c-35.3 0-64 28.7-64 64v768c0 35.3 28.7 64 64 64h704V64H192z m64 64v610h-17c-16.8 0-32.7 3.7-47 10.4V128h64z m-17 768c-25.9 0-47-21.1-47-47s21.1-47 47-47h593v94H239z m81-158V128h320v224l64-63.5 64 63.5V128h64v610H320z" p-id="63988" fill="#ffffff"></path></svg>